<svg width="23" height="25" viewBox="0 0 23 25" fill="none" xmlns="http://www.w3.org/2000/svg">
<path d="M6.58398 24.8193H16.6816C18.4111 24.8193 19.3564 23.9492 19.4316 22.2627L20.1084 7.04102H21.3652C22.085 7.04102 22.6113 6.52539 22.6113 5.81641C22.6113 5.11816 22.085 4.61328 21.3652 4.61328H16.9395V3.06641C16.9395 1.18652 15.7686 0.123047 13.6738 0.123047H9.58105C7.48633 0.123047 6.30469 1.18652 6.30469 3.06641V4.61328H1.88965C1.18066 4.61328 0.643555 5.11816 0.643555 5.81641C0.643555 6.53613 1.18066 7.04102 1.88965 7.04102H3.15723L3.83398 22.2627C3.89844 23.9492 4.85449 24.8193 6.58398 24.8193ZM9.06543 3.1416C9.06543 2.75488 9.32324 2.5293 9.76367 2.5293H13.4805C13.9316 2.5293 14.1895 2.75488 14.1895 3.1416V4.61328H9.06543V3.1416ZM8.10938 21.124C7.60449 21.124 7.25 20.7803 7.23926 20.2754L6.91699 9.37207C6.90625 8.85645 7.23926 8.5127 7.76562 8.5127C8.29199 8.5127 8.64648 8.85645 8.65723 9.36133L8.97949 20.2539C8.99023 20.7695 8.65723 21.124 8.10938 21.124ZM11.6328 21.124C11.1064 21.124 10.752 20.791 10.752 20.2754V9.36133C10.752 8.85645 11.1064 8.5127 11.6328 8.5127C12.1484 8.5127 12.5029 8.85645 12.5029 9.36133V20.2754C12.5029 20.791 12.1484 21.124 11.6328 21.124ZM15.1455 21.124C14.6084 21.124 14.2646 20.7695 14.2754 20.2646L14.5977 9.36133C14.6084 8.85645 14.9629 8.52344 15.4893 8.52344C16.0156 8.52344 16.3594 8.85645 16.3379 9.37207L16.0264 20.2754C16.0156 20.7803 15.6504 21.124 15.1455 21.124Z" fill="white"/>
</svg>
